<svg width="20" height="20" viewBox="0 0 24 24" fill="none" xmlns="http://www.w3.org/2000/svg">
<path d="M6.5 22.5V23C6.77614 23 7 22.7761 7 22.5H6.5ZM1.5 22.5H1C1 22.7761 1.22386 23 1.5 23V22.5ZM1.5 9.5V9C1.22386 9 1 9.22386 1 9.5H1.5ZM6.5 9.5H7C7 9.22386 6.77614 9 6.5 9V9.5ZM13.5 22.5V23C13.7761 23 14 22.7761 14 22.5H13.5ZM8.5 22.5H8C8 22.7761 8.22386 23 8.5 23V22.5ZM8.5 9.49999V8.99999C8.22386 8.99999 8 9.22385 8 9.49999H8.5ZM13.5 9.49999H14C14 9.22385 13.7761 8.99999 13.5 8.99999V9.49999ZM13.5 10.985H13C13 11.1798 13.1131 11.3568 13.2898 11.4387C13.4665 11.5205 13.6747 11.4923 13.8233 11.3664L13.5 10.985ZM17.49 9.48999V8.98994L17.483 8.99004L17.49 9.48999ZM22.5 22.5V23C22.7761 23 23 22.7761 23 22.5H22.5ZM17.5 22.5H17C17 22.7761 17.2239 23 17.5 23V22.5ZM6.5 22H1.5V23H6.5V22ZM2 22.5V9.5H1V22.5H2ZM1.5 10H6.5V9H1.5V10ZM6 9.5V22.5H7V9.5H6ZM15.5 13C14.1193 13 13 14.1193 13 15.5H14C14 14.6716 14.6716 14 15.5 14V13ZM13 15.5V22.5H14V15.5H13ZM13.5 22H8.5V23H13.5V22ZM9 22.5V9.49999H8V22.5H9ZM8.5 9.99999H13.5V8.99999H8.5V9.99999ZM13 9.49999V10.985H14V9.49999H13ZM13.8233 11.3664C14.8511 10.4953 16.1498 10.0087 17.497 9.98994L17.483 8.99004C15.9039 9.01203 14.3815 9.58245 13.1767 10.6036L13.8233 11.3664ZM17.49 9.98999C18.8378 9.98999 19.9426 10.4851 20.7201 11.4276C21.5066 12.3809 22 13.844 22 15.845H23C23 13.691 22.4694 11.9765 21.4914 10.7912C20.5044 9.59484 19.1042 8.98999 17.49 8.98999V9.98999ZM22 15.845V22.5H23V15.845H22ZM22.5 22H17.5V23H22.5V22ZM18 22.5V15.5H17V22.5H18ZM18 15.5C18 14.1193 16.8807 13 15.5 13V14C16.3284 14 17 14.6716 17 15.5H18ZM6 5C6 6.10457 5.10457 7 4 7V8C5.65685 8 7 6.65685 7 5H6ZM4 7C2.89543 7 2 6.10457 2 5H1C1 6.65685 2.34315 8 4 8V7ZM2 5C2 3.89543 2.89543 3 4 3V2C2.34315 2 1 3.34315 1 5H2ZM4 3C4.53043 3 5.03914 3.21071 5.41421 3.58579L6.12132 2.87868C5.55871 2.31607 4.79565 2 4 2V3ZM5.41421 3.58579C5.78929 3.96086 6 4.46957 6 5H7C7 4.20435 6.68393 3.44129 6.12132 2.87868L5.41421 3.58579Z" fill="rgba(255,255,255,0.87)"/>
</svg>
